ply
format ascii 1.0
comment Created by Blender 2.71 (sub 0) - www.blender.org, source file: 'Example.blend'
element vertex 64
property float x
property float y
property float z
property float nx
property float ny
property float nz
element face 92
property list uchar uint vertex_indices
end_header
0.000000 0.750000 0.000000 0.000000 0.727866 -0.685690
0.000000 0.750000 5.000000 0.000000 0.727866 0.685690
0.146318 0.735589 5.000000 0.142003 0.713889 0.685690
0.146318 0.735589 0.000000 0.142003 0.713889 -0.685690
0.287013 0.692910 5.000000 0.278542 0.672475 0.685690
0.287013 0.692910 0.000000 0.278542 0.672475 -0.685690
0.416678 0.623602 5.000000 0.404370 0.605213 0.685690
0.416678 0.623602 0.000000 0.404370 0.605213 -0.685690
0.530330 0.530330 5.000000 0.514664 0.514664 0.685690
0.530330 0.530330 0.000000 0.514664 0.514664 -0.685690
0.623602 0.416678 5.000000 0.605213 0.404370 0.685690
0.623602 0.416678 0.000000 0.605213 0.404370 -0.685690
0.692910 0.287013 5.000000 0.672475 0.278542 0.685690
0.692910 0.287013 0.000000 0.672475 0.278542 -0.685690
0.735589 0.146318 5.000000 0.713889 0.142003 0.685690
0.735589 0.146318 0.000000 0.713889 0.142003 -0.685690
0.750000 0.000000 5.000000 0.727866 0.000000 0.685690
0.750000 0.000000 0.000000 0.727866 0.000000 -0.685690
0.735589 -0.146318 5.000000 0.713889 -0.142003 0.685690
0.735589 -0.146318 0.000000 0.713889 -0.142003 -0.685690
0.692910 -0.287012 5.000000 0.672475 -0.278542 0.685690
0.692910 -0.287012 0.000000 0.672475 -0.278542 -0.685690
0.623602 -0.416678 5.000000 0.605213 -0.404370 0.685690
0.623602 -0.416678 0.000000 0.605213 -0.404370 -0.685690
0.530330 -0.530330 5.000000 0.514664 -0.514664 0.685690
0.530330 -0.530330 0.000000 0.514664 -0.514664 -0.685690
0.416678 -0.623602 5.000000 0.404370 -0.605213 0.685690
0.416678 -0.623602 0.000000 0.404370 -0.605213 -0.685690
0.287012 -0.692910 5.000000 0.278542 -0.672475 0.685690
0.287012 -0.692910 0.000000 0.278542 -0.672475 -0.685690
0.146318 -0.735589 5.000000 0.142003 -0.713889 0.685690
0.146318 -0.735589 0.000000 0.142003 -0.713889 -0.685690
-0.000000 -0.750000 5.000000 0.000000 -0.727866 0.685690
-0.000000 -0.750000 0.000000 0.000000 -0.727866 -0.685690
-0.146318 -0.735589 5.000000 -0.142003 -0.713889 0.685690
-0.146318 -0.735589 0.000000 -0.142003 -0.713889 -0.685690
-0.287013 -0.692909 5.000000 -0.278542 -0.672475 0.685690
-0.287013 -0.692909 0.000000 -0.278542 -0.672475 -0.685690
-0.416678 -0.623602 5.000000 -0.404370 -0.605213 0.685690
-0.416678 -0.623602 0.000000 -0.404370 -0.605213 -0.685690
-0.530330 -0.530330 5.000000 -0.514664 -0.514664 0.685690
-0.530330 -0.530330 0.000000 -0.514664 -0.514664 -0.685690
-0.623603 -0.416677 5.000000 -0.605213 -0.404370 0.685690
-0.623603 -0.416677 0.000000 -0.605213 -0.404370 -0.685690
-0.692910 -0.287012 5.000000 -0.672475 -0.278542 0.685690
-0.692910 -0.287012 0.000000 -0.672475 -0.278542 -0.685690
-0.735589 -0.146317 5.000000 -0.713889 -0.142003 0.685690
-0.735589 -0.146317 0.000000 -0.713889 -0.142003 -0.685690
-0.750000 0.000001 5.000000 -0.727866 0.000000 0.685690
-0.750000 0.000001 0.000000 -0.727866 0.000000 -0.685690
-0.735589 0.146319 5.000000 -0.713889 0.142003 0.685690
-0.735589 0.146319 0.000000 -0.713889 0.142003 -0.685690
-0.692909 0.287013 5.000000 -0.672475 0.278542 0.685690
-0.692909 0.287013 0.000000 -0.672475 0.278542 -0.685690
-0.623602 0.416678 5.000000 -0.605213 0.404370 0.685690
-0.623602 0.416678 0.000000 -0.605213 0.404370 -0.685690
-0.530329 0.530331 5.000000 -0.514664 0.514695 0.685690
-0.530329 0.530331 0.000000 -0.514664 0.514695 -0.685690
-0.416677 0.623603 5.000000 -0.404370 0.605213 0.685690
-0.416677 0.623603 0.000000 -0.404370 0.605213 -0.685690
-0.287012 0.692910 5.000000 -0.278542 0.672475 0.685690
-0.287012 0.692910 0.000000 -0.278542 0.672475 -0.685690
-0.146317 0.735589 5.000000 -0.142003 0.713889 0.685690
-0.146317 0.735589 0.000000 -0.142003 0.713889 -0.685690
4 0 1 2 3
4 3 2 4 5
4 5 4 6 7
4 7 6 8 9
4 9 8 10 11
4 11 10 12 13
4 13 12 14 15
4 15 14 16 17
4 17 16 18 19
4 19 18 20 21
4 21 20 22 23
4 23 22 24 25
4 25 24 26 27
4 27 26 28 29
4 29 28 30 31
4 31 30 32 33
4 33 32 34 35
4 35 34 36 37
4 37 36 38 39
4 39 38 40 41
4 41 40 42 43
4 43 42 44 45
4 45 44 46 47
4 47 46 48 49
4 49 48 50 51
4 51 50 52 53
4 53 52 54 55
4 55 54 56 57
4 57 56 58 59
4 59 58 60 61
3 2 1 4
3 1 62 60
3 60 58 56
3 56 54 52
3 52 50 48
3 48 46 44
3 44 42 40
3 40 38 36
3 36 34 32
3 32 30 28
3 28 26 24
3 24 22 20
3 20 18 16
3 16 14 12
3 12 10 8
3 8 6 4
3 1 60 4
3 60 56 52
3 52 48 44
3 44 40 36
3 36 32 28
3 28 24 20
3 20 16 12
3 12 8 4
3 60 52 4
3 52 44 36
3 36 28 20
3 20 12 4
3 52 36 4
3 36 20 4
4 1 0 63 62
4 61 60 62 63
3 0 3 63
3 3 5 7
3 7 9 11
3 11 13 15
3 15 17 19
3 19 21 23
3 23 25 27
3 27 29 31
3 31 33 35
3 35 37 39
3 39 41 43
3 43 45 47
3 47 49 51
3 51 53 55
3 55 57 59
3 59 61 63
3 3 7 63
3 7 11 15
3 15 19 23
3 23 27 31
3 31 35 39
3 39 43 47
3 47 51 55
3 55 59 63
3 7 15 63
3 15 23 31
3 31 39 47
3 47 55 63
3 15 31 63
3 31 47 63
